<svg width="35" height="35" viewBox="0 0 35 35" fill="none" xmlns="http://www.w3.org/2000/svg" xmlns:xlink="http://www.w3.org/1999/xlink">
  <defs />
  <path id="Vector" d="M25 22L23.41 22L22.86 21.46C24.82 19.18 26 16.21 26 13C26 5.82 20.17 0 13 0C5.82 0 0 5.82 0 13C0 20.18 5.82 26 13 26C16.21 26 19.17 24.82 21.46 22.86L22 23.42L22 25L32 34.98L34.98 32L25 22ZM13 22C8.02 22 4 17.98 4 13C4 8.01 8.02 4 13 4C17.98 4 22 8.01 22 13C22 17.98 17.98 22 13 22Z" fill="#FFFFFF" fill-opacity="1.0" fill-rule="nonzero" />
</svg>